<svg id="Capa_1" enable-background="new 0 0 497 497" height="512" viewBox="0 0 497 497" width="512" xmlns="http://www.w3.org/2000/svg"><path d="m287 352-197 70h-82.5c-4.142 0-7.5 3.358-7.5 7.5v22.5c0 24.853 20.147 45 45 45h287z" fill="#ffcf9c"/><path d="m287 352v100c0 24.853 20.147 45 45 45h30v-145z" fill="#ffaf7b"/><path d="m422 0c-77.742 0-74.684 24.738-74.684 24.738l-.316 469.691c4.693 1.659 9.739 2.571 15 2.571 24.853 0 45-20.147 45-45v-75l-15-15 15-15v-302l45-45s-22.5 0-30 0z" fill="#ffcf9c"/><path d="m452 0 15 75h22.5c4.142 0 7.5-3.358 7.5-7.5v-22.5c0-24.853-20.147-45-45-45z" fill="#ff8d55"/><path d="m452 0c-24.853 0-45 20.147-45 45v30h60v-30c0-24.853-6.716-45-15-45z" fill="#ffaf7b"/><path d="m135 0c-24.853 0-45 20.147-45 45v45l15 15-15 15v30l15 15-15 15v242h53.5l15 15 15-15h136c4.142 0 7.5 3.358 7.5 7.5v22.5c0 19.592 12.524 36.25 30 42.429 17.476-6.179 30-22.837 30-42.429v-75l-15-15 15-15v-302c0-24.853 20.147-45 45-45z" fill="#ffedbe"/><g fill="#9d2b76"><path d="m332 316h-182c-4.142 0-7.5-3.358-7.5-7.5s3.358-7.5 7.5-7.5h182c4.142 0 7.5 3.358 7.5 7.5s-3.358 7.5-7.5 7.5z"/><path d="m332 271h-182c-4.142 0-7.5-3.358-7.5-7.5s3.358-7.5 7.5-7.5h182c4.142 0 7.5 3.358 7.5 7.5s-3.358 7.5-7.5 7.5z"/><path d="m332 226h-182c-4.142 0-7.5-3.358-7.5-7.5s3.358-7.5 7.5-7.5h182c4.142 0 7.5 3.358 7.5 7.5s-3.358 7.5-7.5 7.5z"/><path d="m332 181h-107c-4.142 0-7.5-3.358-7.5-7.5s3.358-7.5 7.5-7.5h107c4.142 0 7.5 3.358 7.5 7.5s-3.358 7.5-7.5 7.5z"/><path d="m332 136h-107c-4.142 0-7.5-3.358-7.5-7.5s3.358-7.5 7.5-7.5h107c4.142 0 7.5 3.358 7.5 7.5s-3.358 7.5-7.5 7.5z"/></g><path d="m150 128.5h45v45h-45z" fill="#ff506f"/></svg>